<!DOCTYPE svg PUBLIC "-//W3C//DTD SVG 1.1//EN" "http://www.w3.org/Graphics/SVG/1.1/DTD/svg11.dtd">
<!-- Uploaded to: SVG Repo, www.svgrepo.com, Transformed by: SVG Repo Mixer Tools -->
<svg fill="#6b7785" version="1.1" id="Layer_1" xmlns="http://www.w3.org/2000/svg" xmlns:xlink="http://www.w3.org/1999/xlink" viewBox="-128 -128 768.00 768.00" xml:space="preserve" width="100px" height="100px">
<g id="SVGRepo_bgCarrier" stroke-width="0"/>
<g id="SVGRepo_tracerCarrier" stroke-linecap="round" stroke-linejoin="round"/>
<g id="SVGRepo_iconCarrier"> <g> <g> <path d="M0,31.67v448.66h512V31.67H0z M496.165,464.495H15.835V121.402h480.33V464.495z M496.165,105.567H15.835V47.505h480.33 V105.567z"/> </g> </g> <g> <g> <rect x="39.588" y="68.619" width="21.113" height="15.835"/> </g> </g> <g> <g> <rect x="71.258" y="68.619" width="21.113" height="15.835"/> </g> </g> <g> <g> <rect x="451.299" y="68.619" width="21.113" height="15.835"/> </g> </g> <g> <g> <path d="M36.948,142.515v300.866h438.103V142.515H36.948z M459.216,427.546H52.784V158.351h406.433V427.546z"/> </g> </g> <g> <g> <path d="M399.571,288.198c-0.668-0.892-16.671-22.084-42.141-43.533c-34.25-28.843-69.325-44.088-101.43-44.088 s-67.18,15.245-101.43,44.088c-25.47,21.449-41.473,42.641-42.141,43.533l-3.563,4.751l3.563,4.75 c0.668,0.892,16.671,22.084,42.141,43.533c34.25,28.843,69.325,44.088,101.43,44.088s67.18-15.245,101.43-44.088 c25.47-21.449,41.473-42.642,42.141-43.533l3.563-4.75L399.571,288.198z M256,369.485c-59.169,0-112.654-59.153-127.091-76.54 c14.428-17.402,67.827-76.532,127.091-76.532c59.165,0,112.647,59.147,127.091,76.54C368.663,310.354,315.264,369.485,256,369.485 z"/> </g> </g> <g> <g> <path d="M256,242.804c-27.649,0-50.144,22.495-50.144,50.144c0,27.649,22.495,50.144,50.144,50.144s50.144-22.495,50.144-50.144 C306.144,265.299,283.649,242.804,256,242.804z M256,327.258c-18.918,0-34.309-15.391-34.309-34.309 c0-18.919,15.392-34.309,34.309-34.309s34.309,15.391,34.309,34.309C290.309,311.867,274.918,327.258,256,327.258z"/> </g> </g> <g> <g> <rect x="240.165" y="285.031" width="31.67" height="15.835"/> </g> </g> <g> <g> <rect x="71.258" y="179.464" width="21.113" height="15.835"/> </g> </g> <g> <g> <rect x="71.258" y="390.598" width="21.113" height="15.835"/> </g> </g> <g> <g> <rect x="419.629" y="390.598" width="21.113" height="15.835"/> </g> </g> <g> <g> <rect x="419.629" y="179.464" width="21.113" height="15.835"/> </g> </g> </g>
</svg>