<!DOCTYPE svg PUBLIC "-//W3C//DTD SVG 1.1//EN" "http://www.w3.org/Graphics/SVG/1.1/DTD/svg11.dtd">
<!-- Uploaded to: SVG Repo, www.svgrepo.com, Transformed by: SVG Repo Mixer Tools -->
<svg fill="#6b7785" version="1.1" id="Layer_1" xmlns="http://www.w3.org/2000/svg" xmlns:xlink="http://www.w3.org/1999/xlink" viewBox="-124 -124 744.00 744.00" xml:space="preserve" width="100px" height="100px">
<g id="SVGRepo_bgCarrier" stroke-width="0"/>
<g id="SVGRepo_tracerCarrier" stroke-linecap="round" stroke-linejoin="round"/>
<g id="SVGRepo_iconCarrier"> <g> <g> <g> <path d="M0,0v304h48v48h41.592c1.952,5.456,4.24,10.928,6.856,16.352l-29.472,29.472l79.192,79.192l29.472-29.472 c5.424,2.616,10.896,4.904,16.352,6.856V496h112v-41.592c5.456-1.952,10.928-4.24,16.352-6.856l29.472,29.472l79.192-79.192 l-29.472-29.472c2.616-5.424,4.904-10.896,6.856-16.352H448v-48h48V0H0z M16,288V80h144v208H16z M343.592,304 c-4.088,49.192-45.36,88-95.592,88s-91.504-38.808-95.592-88H343.592z M432,336h-37.224l-1.76,5.6 c-2.568,8.176-6.032,16.464-10.296,24.624l-2.72,5.208l26.392,26.392l-56.568,56.568L323.432,428l-5.208,2.72 c-8.16,4.264-16.44,7.728-24.624,10.296l-5.6,1.76V480h-80v-37.224l-5.6-1.76c-8.176-2.568-16.464-6.032-24.624-10.296 l-5.208-2.72l-26.392,26.392l-56.568-56.568L116,371.432l-2.72-5.208c-4.264-8.16-7.728-16.44-10.296-24.624l-1.76-5.6H64v-32 h72.408c4.128,58.024,52.536,104,111.592,104c59.056,0,107.464-45.976,111.592-104H432V336z M480,288H176V80h304V288z M480,64H16 V16h464V64z"/> <rect x="32" y="32" width="48" height="16"/> <rect x="96" y="32" width="16" height="16"/> <rect x="32" y="96" width="112" height="16"/> <rect x="32" y="128" width="112" height="16"/> <rect x="32" y="160" width="112" height="16"/> <rect x="32" y="192" width="112" height="16"/> <rect x="32" y="224" width="112" height="16"/> <rect x="32" y="256" width="112" height="16"/> <path d="M464,96h-80v80h80V96z M448,160h-48v-48h48V160z"/> <path d="M368,96h-80v80h80V96z M352,160h-48v-48h48V160z"/> <path d="M272,96h-80v80h80V96z M256,160h-48v-48h48V160z"/> <path d="M464,192h-80v80h80V192z M448,256h-48v-48h48V256z"/> <path d="M368,192h-80v80h80V192z M352,256h-48v-48h48V256z"/> <path d="M272,192h-80v80h80V192z M256,256h-48v-48h48V256z"/> </g> </g> </g> </g>
</svg>