<svg width="14" height="12" viewBox="0 0 14 12" fill="none" xmlns="http://www.w3.org/2000/svg">
<path d="M6.99883 0.75C5.17521 0.75 3.71497 1.6125 2.65195 2.63906C1.5957 3.65625 0.889277 4.875 0.555249 5.71172C0.48077 5.89687 0.48077 6.10312 0.555249 6.28828C0.889277 7.125 1.5957 8.34375 2.65195 9.36094C3.71497 10.3875 5.17521 11.25 6.99883 11.25C8.82244 11.25 10.2827 10.3875 11.3457 9.36094C12.402 8.34141 13.1084 7.125 13.4447 6.28828C13.5191 6.10312 13.5191 5.89687 13.4447 5.71172C13.1084 4.875 12.402 3.65625 11.3457 2.63906C10.2827 1.6125 8.82244 0.75 6.99883 0.75ZM3.74883 6C3.74883 5.10489 4.09124 4.24645 4.70073 3.61351C5.31022 2.98058 6.13687 2.625 6.99883 2.625C7.86078 2.625 8.68743 2.98058 9.29692 3.61351C9.90642 4.24645 10.2488 5.10489 10.2488 6C10.2488 6.89511 9.90642 7.75355 9.29692 8.38649C8.68743 9.01942 7.86078 9.375 6.99883 9.375C6.13687 9.375 5.31022 9.01942 4.70073 8.38649C4.09124 7.75355 3.74883 6.89511 3.74883 6ZM6.99883 4.5C6.99883 5.32734 6.35108 6 5.55438 6C5.39414 6 5.24067 5.97187 5.09622 5.92266C4.97209 5.88047 4.82765 5.96016 4.83216 6.09609C4.83893 6.25781 4.8615 6.41953 4.90438 6.58125C5.21358 7.78125 6.40299 8.49375 7.55855 8.17266C8.7141 7.85156 9.40022 6.61641 9.09101 5.41641C8.84049 4.44375 8.01219 3.78984 7.09136 3.75C6.96046 3.74531 6.88372 3.89297 6.92435 4.02422C6.97174 4.17422 6.99883 4.33359 6.99883 4.5Z" fill="#090F29"/>
</svg>
