<!DOCTYPE svg PUBLIC "-//W3C//DTD SVG 1.1//EN" "http://www.w3.org/Graphics/SVG/1.1/DTD/svg11.dtd">
<!-- Uploaded to: SVG Repo, www.svgrepo.com, Transformed by: SVG Repo Mixer Tools -->
<svg fill="#6b7785" version="1.1" id="Layer_1" xmlns="http://www.w3.org/2000/svg" xmlns:xlink="http://www.w3.org/1999/xlink" viewBox="-124 -124 744.00 744.00" xml:space="preserve" width="100px" height="100px" stroke="#6b7785" transform="matrix(1, 0, 0, 1, 0, 0)" stroke-width="0.004960000000000001">
<g id="SVGRepo_bgCarrier" stroke-width="0"/>
<g id="SVGRepo_tracerCarrier" stroke-linecap="round" stroke-linejoin="round" stroke="#CCCCCC" stroke-width="2.976"/>
<g id="SVGRepo_iconCarrier"> <g> <g> <g> <path d="M0,0v496h496V0H0z M160,480H16V80h144V480z M480,480H176V336h304V480z M480,320H176V208h304V320z M480,192H176V80h304 V192z M480,64H16V16h464V64z"/> <rect x="32" y="32" width="16" height="16"/> <rect x="64" y="32" width="16" height="16"/> <rect x="96" y="32" width="16" height="16"/> <path d="M304,96H192v80h112V96z M288,160h-80v-48h80V160z"/> <rect x="320" y="96" width="144" height="16"/> <rect x="320" y="128" width="144" height="16"/> <rect x="320" y="160" width="144" height="16"/> <path d="M304,224H192v80h112V224z M288,288h-80v-48h80V288z"/> <rect x="320" y="224" width="144" height="16"/> <rect x="320" y="256" width="144" height="16"/> <rect x="320" y="288" width="144" height="16"/> <path d="M400,464c30.88,0,56-25.128,56-56s-25.12-56-56-56s-56,25.128-56,56S369.12,464,400,464z M400,368 c22.056,0,40,17.944,40,40c0,22.056-17.944,40-40,40c-22.056,0-40-17.944-40-40C360,385.944,377.944,368,400,368z"/> <path d="M256,464c30.88,0,56-25.128,56-56s-25.12-56-56-56s-56,25.128-56,56S225.12,464,256,464z M256,368 c22.056,0,40,17.944,40,40c0,22.056-17.944,40-40,40c-22.056,0-40-17.944-40-40C216,385.944,233.944,368,256,368z"/> <rect x="32" y="224" width="112" height="16"/> <rect x="32" y="256" width="112" height="16"/> <rect x="32" y="288" width="112" height="16"/> <rect x="32" y="320" width="112" height="16"/> <rect x="32" y="352" width="112" height="16"/> <rect x="32" y="384" width="112" height="16"/> <rect x="32" y="416" width="112" height="16"/> <rect x="32" y="448" width="80" height="16"/> <path d="M144,96H32v112h112V96z M128,192H48v-80h80V192z"/> <rect x="128" y="448" width="16" height="16"/> </g> </g> </g> </g>
</svg>